Patient4_TMGait_0pt4_01_left_39_GRF.mot
version=1
nRows=45
nColumns=19
inDegrees=no
endheader
time	F1x	F1y	F1z	M1x	M1y	M1z	F2x	F2y	F2z	M2x	M2y	M2z	EC1x	EC1y	EC1z	EC2x	EC2y	EC2z
48.85	16.8548	13.1304	7.3148	-2.4265	-2.7512	-1.5958	-41.4199	742.4843	-62.41	280.3234	86.2242	820.2953	-0.0592	0.0182	-0.0073	-0.0462	0.0165	0.9585
48.8636	11.3152	9.7296	4.9332	-1.9174	-1.8901	0.01678	-37.4179	741.6342	-62.2193	279.3002	84.0298	816.5893	-0.0592	0.0182	-0.0073	-0.0462	0.0165	0.9585
48.8773	6.6367	6.8459	2.9152	-1.4915	-1.1483	1.3731	-33.6931	741.2232	-61.6641	278.5434	81.5385	813.032	-0.0592	0.0182	-0.0073	-0.0462	0.0165	0.9585
48.8909	3.0818	4.6595	1.3723	-1.1771	-0.56676	2.4086	-30.43	741.9038	-60.7928	278.3425	78.8996	810.4177	-0.0592	0.0182	-0.0073	-0.0462	0.0165	0.9585
48.9046	0.63003	3.157	0.30893	-0.96975	-0.15978	3.133	-27.6398	744.1945	-59.7179	278.9031	76.2551	809.3529	-0.0592	0.0182	-0.0073	-0.0462	0.0165	0.9585
48.9182	-0.87123	2.232	-0.35239	-0.84807	0.099147	3.5782	-25.2335	748.2857	-58.5969	280.2834	73.7418	810.0637	-0.0592	0.0182	-0.0073	-0.0462	0.0165	0.9585
48.9319	-1.672	1.7364	-0.7031	-0.78331	0.23049	3.8046	-23.0608	753.9403	-57.5574	282.3685	71.4332	812.31	-0.0592	0.0182	-0.0073	-0.0462	0.0165	0.9585
48.9455	-1.9859	1.476	-0.83843	-0.73666	0.26985	3.7969	-20.9768	760.5222	-56.6803	284.8866	69.348	815.4386	-0.0592	0.0182	-0.0073	-0.0462	0.0165	0.9585
48.9591	-2.0229	1.2774	-0.83414	-0.67018	0.23543	3.5544	-18.8714	767.1095	-55.9944	287.459	67.4615	818.5068	-0.0592	0.0182	-0.0073	-0.0462	0.0165	0.9585
48.9728	-1.9291	0.97329	-0.7516	-0.54453	0.15085	3.0288	-16.6778	772.6484	-55.4956	289.6616	65.7366	820.4458	-0.0592	0.0182	-0.0073	-0.0462	0.0165	0.9585
48.9864	-1.7945	0.40505	-0.63449	-0.31869	0.041681	2.1325	-14.3765	776.1461	-55.1589	291.0975	64.1347	820.2648	-0.0592	0.0182	-0.0073	-0.0462	0.0165	0.9585
49.0001	-1.6871	-0.53053	-0.51686	0.036499	-0.068824	0.81041	-11.9525	776.8567	-54.9566	291.4655	62.6209	817.2277	-0.0592	0.0182	-0.0073	-0.0462	0.0165	0.9585
49.0137	-1.592	-1.8893	-0.41797	0.53567	-0.15177	-0.99149	-9.3895	774.3754	-54.8971	290.5964	61.1994	810.9498	-0.0592	0.0182	-0.0073	-0.0462	0.0165	0.9585
49.0274	-1.484	-3.6297	-0.35151	1.1625	-0.17952	-3.198	-6.6736	768.7207	-55.017	288.485	59.9019	801.4736	-0.0592	0.0182	-0.0073	-0.0462	0.0165	0.9585
49.041	-1.2816	-5.5753	-0.33095	1.854	-0.11208	-5.6047	-3.7987	760.3976	-55.3742	285.3153	58.7827	789.3239	-0.0592	0.0182	-0.0073	-0.0462	0.0165	0.9585
49.0546	-0.88178	-7.3377	-0.35933	2.4743	0.086789	-7.7733	-0.80233	750.3625	-56.0054	281.4446	57.888	775.4895	-0.0592	0.0182	-0.0073	-0.0462	0.0165	0.9585
49.0683	-0.16944	-8.2557	-0.45121	2.7919	0.46514	-8.9435	2.2575	739.842	-56.926	277.3376	57.2484	761.2384	-0.0592	0.0182	-0.0073	-0.0462	0.0165	0.9585
49.0819	0.99681	-7.3524	-0.6159	2.4611	1.0818	-7.9959	5.288	730.101	-58.0943	273.4736	56.8538	747.8996	-0.0592	0.0182	-0.0073	-0.0462	0.0165	0.9585
49.0956	2.7088	-3.2746	-0.86718	0.99888	1.9848	-3.3618	8.196	722.1326	-59.437	270.2237	56.6677	736.534	-0.0592	0.0182	-0.0073	-0.0462	0.0165	0.9585
49.1092	5.0169	5.6375	-1.1998	-2.1926	3.1771	6.8831	10.9154	716.3552	-60.8527	267.7373	56.618	727.601	-0.0592	0.0182	-0.0073	-0.0462	0.0165	0.9585
49.1229	7.8387	21.2068	-1.5869	-7.7675	4.5882	24.8786	13.3805	712.4325	-62.2304	265.8712	56.6218	720.8171	-0.0592	0.0182	-0.0073	-0.0462	0.0165	0.9585
49.1365	10.8804	45.0828	-1.9662	-16.3124	6.0307	52.5803	15.5621	709.184	-63.4445	264.1691	56.5767	715.057	-0.0592	0.0182	-0.0073	-0.0462	0.0165	0.9585
49.1501	13.5454	78.1535	-2.2221	-28.1382	7.1478	91.0576	17.4118	704.7415	-64.354	261.9271	56.3702	708.5256	-0.0592	0.0182	-0.0073	-0.0462	0.0165	0.9585
49.1638	14.8	119.6664	-2.1789	-42.9622	7.3614	139.5013	18.8786	696.8655	-64.7868	258.3202	55.8609	699.0508	-0.0592	0.0182	-0.0073	-0.0462	0.0165	0.9585
49.1774	13.2314	166.1154	-1.5771	-59.5152	5.8791	193.918	19.9101	683.4261	-64.5603	252.583	54.9014	684.5441	-0.0592	0.0182	-0.0073	-0.0462	0.0165	0.9585
49.1911	8.3633	211.3269	0.048511	-75.5446	2.0188	247.2445	20.4556	663.0112	-63.5308	244.234	53.3832	663.5887	-0.0592	0.0182	-0.0073	-0.0462	0.0165	0.9585
49.2047	1.7026	249.2374	3.1875	-88.8399	-4.1496	292.363	20.5673	635.5287	-61.6806	233.2942	51.2923	635.991	-0.0592	0.0182	-0.0073	-0.0462	0.0165	0.9585
49.2184	-5.1557	278.1686	7.1776	-98.7978	-11.3027	327.0805	20.3833	602.3155	-59.1748	220.3029	48.7518	602.9292	-0.0592	0.0182	-0.0073	-0.0462	0.0165	0.9585
49.232	-11.3313	300.3603	11.6839	-106.2211	-18.7018	353.8533	20.1203	565.2852	-56.2927	206.0078	45.9535	566.1321	-0.0592	0.0182	-0.0073	-0.0462	0.0165	0.9585
49.2456	-16.4632	319.2867	16.103	-112.3899	-25.5589	376.6007	19.951	526.1736	-53.163	191.0841	42.9604	527.1965	-0.0592	0.0182	-0.0073	-0.0462	0.0165	0.9585
49.2593	-20.7191	337.988	20.3473	-118.4122	-31.7974	398.8436	19.9559	486.174	-49.7061	176.0008	39.6695	487.2382	-0.0592	0.0182	-0.0073	-0.0462	0.0165	0.9585
49.2729	-24.2117	358.5432	24.0796	-125.0701	-37.122	422.8372	20.1135	445.9401	-45.7426	161.0114	35.9147	446.8979	-0.0592	0.0182	-0.0073	-0.0462	0.0165	0.9585
49.2866	-26.8931	382.499	27.4185	-132.9241	-41.639	450.2645	20.2935	405.6714	-41.1913	146.1825	31.6497	406.4206	-0.0592	0.0182	-0.0073	-0.0462	0.0165	0.9585
49.3002	-28.5662	410.8137	30.3822	-142.3221	-45.3412	482.076	20.3083	365.2674	-36.1235	131.4522	26.9881	365.7592	-0.0592	0.0182	-0.0073	-0.0462	0.0165	0.9585
49.3139	-29.2132	443.3366	33.3738	-153.2025	-48.661	518.0547	19.9273	324.5344	-30.7671	116.7129	22.2005	324.7895	-0.0592	0.0182	-0.0073	-0.0462	0.0165	0.9585
49.3275	-28.9668	479.1188	36.5736	-165.2268	-51.861	557.0974	18.9507	283.4205	-25.3975	101.9064	17.5962	283.5097	-0.0592	0.0182	-0.0073	-0.0462	0.0165	0.9585
49.3411	-28.0351	517.0968	40.179	-178.0208	-55.231	598.0103	17.2221	242.2	-20.2969	87.0967	13.48	242.2279	-0.0592	0.0182	-0.0073	-0.0462	0.0165	0.9585
49.3548	-26.7266	556.4547	44.0952	-191.3088	-58.7872	639.9329	14.7016	201.5966	-15.6884	72.5155	10.0719	201.6764	-0.0592	0.0182	-0.0073	-0.0462	0.0165	0.9585
49.3684	-25.2575	596.5963	48.1663	-204.9002	-62.4389	682.2603	11.5367	162.7149	-11.7403	58.5429	7.4831	162.9252	-0.0592	0.0182	-0.0073	-0.0462	0.0165	0.9585
49.3821	-23.8367	636.8638	52.1525	-218.5775	-66.002	724.3588	8.0019	126.8688	-8.5347	45.6435	5.6984	127.2466	-0.0592	0.0182	-0.0073	-0.0462	0.0165	0.9585
49.3957	-22.6551	676.2127	55.839	-231.9803	-69.3117	765.1763	4.4965	95.2326	-6.0686	34.2422	4.5807	95.7533	-0.0592	0.0182	-0.0073	-0.0462	0.0165	0.9585
49.4094	-21.8528	713.2004	59.1183	-244.5937	-72.3039	803.2231	1.3849	68.5514	-4.2509	24.6136	3.9188	69.1598	-0.0592	0.0182	-0.0073	-0.0462	0.0165	0.9585
49.423	-21.5207	746.2648	61.8925	-255.8595	-74.9102	836.8782	-1.0941	46.9975	-2.9312	16.831	3.4881	47.6286	-0.0592	0.0182	-0.0073	-0.0462	0.0165	0.9585
49.4366	-21.6116	774.0723	64.1463	-265.298	-77.1029	864.7415	-2.8267	30.2762	-1.9745	10.798	3.1242	30.8743	-0.0592	0.0182	-0.0073	-0.0462	0.0165	0.9585
49.4503	-22.0069	795.7258	65.785	-272.5907	-78.7425	885.8539	-3.7957	17.8452	-1.2682	6.3207	2.7246	18.3836	-0.0592	0.0182	-0.0073	-0.0462	0.0165	0.9585
